<?xml version="1.0" encoding="UTF-8"?>
<svg id="Capa_1" data-name="Capa 1" xmlns="http://www.w3.org/2000/svg" xmlns:xlink="http://www.w3.org/1999/xlink" viewBox="0 0 531.63 179.86">
  <defs>
    <style>
      .cls-1 {
        fill: url(#Degradado_sin_nombre_12-3);
      }

      .cls-2 {
        fill: url(#Degradado_sin_nombre_12-4);
      }

      .cls-3 {
        stroke: #006477;
      }

      .cls-3, .cls-4, .cls-5, .cls-6 {
        fill: none;
        stroke-miterlimit: 10;
      }

      .cls-3, .cls-5, .cls-6 {
        stroke-width: 8.28px;
      }

      .cls-4 {
        stroke: #aedcea;
        stroke-width: 3.31px;
      }

      .cls-7 {
        fill: url(#Degradado_sin_nombre_12-5);
      }

      .cls-8 {
        fill: url(#Degradado_sin_nombre_12-2);
      }

      .cls-5 {
        stroke: #00424f;
      }

      .cls-6 {
        stroke: #009cbc;
      }

      .cls-9 {
        fill: url(#Degradado_sin_nombre_12);
      }
    </style>
    <linearGradient id="Degradado_sin_nombre_12" data-name="Degradado sin nombre 12" x1="135.14" y1="63.92" x2="532.94" y2="65.86" gradientUnits="userSpaceOnUse">
      <stop offset="0" stop-color="#009cbc"/>
      <stop offset="1" stop-color="#251b61"/>
    </linearGradient>
    <linearGradient id="Degradado_sin_nombre_12-2" data-name="Degradado sin nombre 12" x1="135.14" y1="64.42" x2="532.94" y2="66.35" xlink:href="#Degradado_sin_nombre_12"/>
    <linearGradient id="Degradado_sin_nombre_12-3" data-name="Degradado sin nombre 12" x1="135.08" y1="76.51" x2="532.88" y2="78.45" xlink:href="#Degradado_sin_nombre_12"/>
    <linearGradient id="Degradado_sin_nombre_12-4" data-name="Degradado sin nombre 12" x1="135.08" y1="76.04" x2="532.88" y2="77.98" xlink:href="#Degradado_sin_nombre_12"/>
    <linearGradient id="Degradado_sin_nombre_12-5" data-name="Degradado sin nombre 12" x1="135.15" y1="62.26" x2="532.95" y2="64.2" xlink:href="#Degradado_sin_nombre_12"/>
  </defs>
  <g>
    <g>
      <path class="cls-9" d="M144.8,14.82h13.22v63.22c0,10.64,3.01,18.5,9.03,23.57,2.7,2.25,5.72,3.78,9.03,4.61,3.14.75,6.68,1.12,10.61,1.12,7.94,0,14.45-1.54,19.51-4.61,4.1-2.49,7.07-5.57,8.9-9.23,2.18-4.49,3.27-9.73,3.27-15.71V14.82h7.46v63.85c0,14.05-5.46,24.07-16.37,30.05-3.67,2-7.38,3.32-11.13,3.99-3.93.66-8.25,1-12.96,1-7.33,0-13.22-.75-17.68-2.25-7.07-2.33-12.57-6.07-16.5-11.22-4.28-5.65-6.42-12.84-6.42-21.57V14.82Z"/>
      <path class="cls-8" d="M285.17,23.3v90.41h-13.49V23.3h-35.88v-6.61h85.24v6.61h-35.88Z"/>
      <path class="cls-1" d="M374.14,78.75h-51.07c.29,7.32,1.75,13.41,4.37,18.29,3.98,7.41,10.28,11.11,18.92,11.11,6.01,0,11.59-1.9,16.73-5.69,1.75-1.36,4.02-3.48,6.84-6.37l3.93,9.21c-3.78,2.44-6.94,4.2-9.46,5.28-5.05,2.08-10.87,3.12-17.46,3.12-11.35,0-20.23-2.75-26.63-8.26-3.01-2.62-5.38-5.64-7.13-9.08-3.01-5.96-4.51-12.33-4.51-19.1,0-7.4,1.6-14.04,4.8-19.92,2.62-4.79,6.01-8.44,10.19-10.97,5.43-3.34,11.79-5.01,19.06-5.01,8.15,0,14.94,2.12,20.37,6.37,2.81,2.26,5.14,5.33,6.98,9.21,2.33,4.88,3.64,10.52,3.93,16.94.09,1.45.14,3.07.14,4.88ZM323.36,72.39h36.38c-.39-5.33-.97-9.3-1.75-11.92-1.75-5.6-4.27-9.44-7.57-11.52-2.23-1.36-4.85-2.03-7.86-2.03-11.25,0-17.66,8.49-19.21,25.47Z"/>
      <path class="cls-2" d="M449.75,57.86l-9.3-.22c-1.73-3.79-4.08-7.13-6.06-8.22-3.85-2.18-4.93-2.64-9.38-2.64-7.81,0-13.54,2.99-17.19,8.98-3.56,5.62-5.34,12.88-5.34,21.77s1.68,15.83,5.04,21.36c1.68,2.81,4,5.03,6.97,6.67,3.26,1.72,7.06,2.58,11.41,2.58,5.53,0,10.62-1.59,15.26-4.76,1.68-1.18,3.9-3.04,6.67-5.58l2.67,10.75c-3.85,1.72-7.21,2.95-10.08,3.67-4.25,1-8.74,1.5-13.49,1.5-14.52,0-25.1-3.99-31.71-11.97-5.33-6.53-8-14.56-8-24.08,0-10.7,3.31-19.41,9.93-26.12,2.37-2.45,4.99-4.4,7.85-5.85,5.93-2.99,12.65-4.49,20.15-4.49,8.4,0,20.91,4.22,24.58,16.66Z"/>
      <path class="cls-7" d="M464.78,14.08h12.78v46.52c2.57-3.38,4.92-6,7.05-7.86,4.61-3.8,9.98-5.7,16.1-5.7,4.79,0,9.05,1.1,12.78,3.3,2.75,1.61,4.88,3.76,6.39,6.47,2.13,3.55,3.19,7.52,3.19,11.91v45h-12.78v-44.36c0-6.59-1.51-11.15-4.53-13.69-2.22-1.77-4.84-2.66-7.85-2.66-4.61,0-8.78,2.03-12.51,6.08-5.24,5.75-7.85,9.59-7.85,11.53v43.1h-12.78V14.08Z"/>
    </g>
    <line class="cls-4" x1="114.07" x2="114.07" y2="126.75"/>
    <g>
      <path class="cls-6" d="M60.43,75.21c-11.47,0-20.76-9.09-20.76-20.3s9.3-20.3,20.76-20.3,20.76,9.09,20.76,20.3"/>
      <path class="cls-3" d="M60.43,91.03c-19.95,0-36.12-16.17-36.12-36.12S40.48,18.79,60.43,18.79"/>
      <path class="cls-5" d="M59.35,107.68c-29.15,0-52.78-23.63-52.78-52.78"/>
    </g>
  </g>
  <g>
    <path d="M15.86,144.86v30.5h-4.33v-30.5H0v-2.23h27.39v2.23h-11.53Z"/>
    <path d="M31.47,142.29h4.04v15.44c.81-1.12,1.56-1.99,2.23-2.61,1.46-1.26,3.16-1.89,5.09-1.89,1.51,0,2.86.37,4.04,1.09.87.53,1.54,1.25,2.02,2.15.67,1.18,1.01,2.5,1.01,3.96v14.94h-4.04v-14.73c0-2.19-.48-3.7-1.43-4.54-.7-.59-1.53-.88-2.48-.88-1.46,0-2.78.67-3.95,2.02-1.66,1.91-2.48,3.18-2.48,3.83v14.31h-4.04v-33.07Z"/>
    <path d="M73.63,164.8h-14.77c.08,2.27.51,4.17,1.26,5.68,1.15,2.3,2.97,3.45,5.47,3.45,1.74,0,3.35-.59,4.84-1.77.5-.42,1.16-1.08,1.98-1.98l1.14,2.86c-1.09.76-2.01,1.3-2.73,1.64-1.46.64-3.14.97-5.05.97-3.28,0-5.85-.86-7.7-2.57-.87-.81-1.56-1.75-2.06-2.82-.87-1.85-1.3-3.83-1.3-5.93,0-2.3.46-4.36,1.39-6.18.76-1.49,1.74-2.62,2.95-3.41,1.57-1.04,3.41-1.56,5.51-1.56,2.36,0,4.32.66,5.89,1.98.81.7,1.49,1.66,2.02,2.86.67,1.51,1.05,3.27,1.14,5.26.03.45.04.95.04,1.51ZM58.94,162.82h10.52c-.11-1.65-.28-2.89-.5-3.7-.51-1.74-1.23-2.93-2.19-3.58-.65-.42-1.4-.63-2.27-.63-3.25,0-5.11,2.64-5.55,7.91Z"/>
    <path d="M93.78,153.82v-6.69c0-1.21.11-2.05.34-2.52.39-.81,1.02-1.37,1.89-1.68.59-.2,1.53-.29,2.82-.29h5.17v2.06h-3.74c-1.09,0-1.78.18-2.06.55-.25.36-.38,1.05-.38,2.06v6.52h6.18v2.06h-6.18v19.48h-4.04v-19.48h-5.34v-2.06h5.34Z"/>
    <path d="M126.72,175.36h-4.04v-4.17c-.81,1.09-1.57,1.95-2.27,2.57-1.43,1.26-3.13,1.89-5.09,1.89-1.49,0-2.81-.34-3.96-1.01-.87-.53-1.56-1.26-2.06-2.19-.67-1.21-1.01-2.54-1.01-4v-14.94h4.04v14.73c0,2.24.49,3.79,1.47,4.63.67.62,1.49.93,2.44.93,1.51,0,2.87-.74,4.08-2.23.64-.78,1.26-1.64,1.85-2.57.34-.53.51-.93.51-1.18v-14.31h4.04v21.84Z"/>
    <path d="M140.06,153.82h6.14v2.06h-6.14v15.02c0,.79.15,1.32.46,1.6.36.31.93.46,1.68.46h4v2.06h-5.3c-1.37,0-2.37-.14-2.99-.42-1.26-.62-1.89-1.75-1.89-3.41v-15.31h-5.09v-2.06h5.09v-7.4h4.04v7.4Z"/>
    <path d="M168.84,175.36h-4.04v-4.17c-.81,1.09-1.57,1.95-2.27,2.57-1.43,1.26-3.13,1.89-5.09,1.89-1.49,0-2.81-.34-3.96-1.01-.87-.53-1.56-1.26-2.06-2.19-.67-1.21-1.01-2.54-1.01-4v-14.94h4.04v14.73c0,2.24.49,3.79,1.47,4.63.67.62,1.49.93,2.44.93,1.51,0,2.87-.74,4.08-2.23.64-.78,1.26-1.64,1.85-2.57.34-.53.51-.93.51-1.18v-14.31h4.04v21.84Z"/>
    <path d="M179.06,159.29c.59-1.15,1.15-2.02,1.68-2.61,1.09-1.32,2.36-2.24,3.79-2.78.98-.39,2.48-.62,4.5-.67v3.62c-1.96.03-3.42.15-4.38.38-1.85.45-3.34,1.53-4.46,3.24-.31.45-.58.92-.8,1.41-.22.49-.34.83-.34,1.03v12.45h-4.04v-21.84h4.04v5.76Z"/>
    <path d="M210.57,164.8h-14.77c.08,2.27.51,4.17,1.26,5.68,1.15,2.3,2.97,3.45,5.47,3.45,1.74,0,3.35-.59,4.84-1.77.5-.42,1.16-1.08,1.98-1.98l1.14,2.86c-1.09.76-2.01,1.3-2.73,1.64-1.46.64-3.14.97-5.05.97-3.28,0-5.85-.86-7.7-2.57-.87-.81-1.56-1.75-2.06-2.82-.87-1.85-1.3-3.83-1.3-5.93,0-2.3.46-4.36,1.39-6.18.76-1.49,1.74-2.62,2.95-3.41,1.57-1.04,3.41-1.56,5.51-1.56,2.36,0,4.32.66,5.89,1.98.81.7,1.49,1.66,2.02,2.86.67,1.51,1.05,3.27,1.14,5.26.03.45.04.95.04,1.51ZM195.89,162.82h10.52c-.11-1.65-.28-2.89-.5-3.7-.51-1.74-1.23-2.93-2.19-3.58-.65-.42-1.4-.63-2.27-.63-3.25,0-5.11,2.64-5.55,7.91Z"/>
    <path d="M229.46,142c.81,0,1.5.32,2.06.97.51.53.76,1.16.76,1.89,0,.87-.32,1.59-.97,2.15-.53.5-1.16.76-1.89.76-.87,0-1.58-.32-2.15-.97-.5-.53-.76-1.18-.76-1.94,0-.84.32-1.54.97-2.1.53-.51,1.19-.76,1.98-.76ZM227.4,175.36v-21.84h4.08v21.84h-4.08Z"/>
    <path d="M236.4,173.51l1.09-3.11c1.35,1.18,2.45,2.01,3.32,2.48,1.32.7,2.66,1.05,4.04,1.05,1.07,0,2.03-.24,2.9-.71,1.23-.64,1.85-1.72,1.85-3.24,0-.95-.27-1.68-.8-2.19-.42-.42-1.21-.81-2.36-1.18l-4.8-1.56c-1.74-.56-2.97-1.26-3.7-2.1-.76-.9-1.14-1.99-1.14-3.28,0-2.36,1.04-4.11,3.11-5.26,1.43-.78,3.18-1.18,5.26-1.18,2.78,0,5.47.69,8.08,2.06l-1.47,2.52c-.93-.76-1.72-1.32-2.4-1.68-1.37-.78-2.79-1.18-4.25-1.18s-2.65.42-3.41,1.26c-.62.7-.93,1.56-.93,2.57,0,.9.32,1.56.97,1.98.56.37,1.43.74,2.61,1.14l3.83,1.26c1.37.45,2.37.86,2.99,1.22,1.71,1.07,2.57,2.65,2.57,4.75,0,2.33-1,4.07-2.99,5.22-1.46.87-3.39,1.3-5.81,1.3-2.05,0-3.94-.28-5.68-.84-.76-.25-1.72-.69-2.9-1.3Z"/>
    <path d="M272.46,142c.81,0,1.5.32,2.06.97.5.53.76,1.16.76,1.89,0,.87-.32,1.59-.97,2.15-.53.5-1.16.76-1.89.76-.87,0-1.59-.32-2.15-.97-.5-.53-.76-1.18-.76-1.94,0-.84.32-1.54.97-2.1.53-.51,1.19-.76,1.98-.76ZM270.4,175.36v-21.84h4.08v21.84h-4.08Z"/>
    <path d="M280.75,153.52h4.04v4.21c.93-1.29,1.79-2.26,2.61-2.9,1.4-1.07,2.97-1.6,4.71-1.6,1.43,0,2.75.37,3.96,1.09.93.56,1.64,1.28,2.15,2.15.64,1.15.97,2.47.97,3.96v14.94h-4.04v-14.73c0-1.4-.25-2.61-.76-3.62-.28-.56-.72-1.01-1.3-1.35-.53-.31-1.15-.46-1.85-.46-1.63,0-3.06.81-4.29,2.44-1.43,1.88-2.15,3.02-2.15,3.41v14.31h-4.04v-21.84Z"/>
    <path d="M326.73,167.41l6.98-13.88h2.44l-13.25,26.34h-2.44l4.08-8.08-9.63-18.26h4.5l7.32,13.88Z"/>
    <path d="M349.16,153.23c1.91,0,3.65.46,5.22,1.39,1.57.93,2.78,2.13,3.62,3.62,1.04,1.85,1.56,3.91,1.56,6.18s-.52,4.38-1.56,6.23c-.84,1.51-2.05,2.72-3.62,3.62-1.6.93-3.38,1.39-5.34,1.39s-3.72-.46-5.34-1.39c-1.54-.9-2.75-2.09-3.62-3.58-1.04-1.88-1.56-3.95-1.56-6.23,0-2.47.56-4.63,1.68-6.48.95-1.54,2.27-2.75,3.96-3.62,1.46-.76,3.13-1.14,5.01-1.14ZM348.95,154.96c-1.32,0-2.51.5-3.58,1.51-1.68,1.6-2.52,4.22-2.52,7.87,0,2.69.48,4.91,1.43,6.65.48.93,1.16,1.66,2.06,2.19.84.51,1.74.76,2.69.76,1.4,0,2.62-.5,3.66-1.51.84-.78,1.49-1.89,1.93-3.32.39-1.35.59-2.85.59-4.5,0-3.03-.56-5.41-1.68-7.15-.5-.81-1.21-1.44-2.1-1.89-.76-.39-1.59-.59-2.48-.59Z"/>
    <path d="M382.61,175.36h-4.04v-4.17c-.81,1.09-1.57,1.95-2.27,2.57-1.43,1.26-3.13,1.89-5.09,1.89-1.49,0-2.8-.34-3.95-1.01-.87-.53-1.56-1.26-2.06-2.19-.67-1.21-1.01-2.54-1.01-4v-14.94h4.04v14.73c0,2.24.49,3.79,1.47,4.63.67.62,1.49.93,2.44.93,1.51,0,2.88-.74,4.08-2.23.64-.78,1.26-1.64,1.85-2.57.34-.53.5-.93.5-1.18v-14.31h4.04v21.84Z"/>
    <path d="M392.83,159.29c.59-1.15,1.15-2.02,1.68-2.61,1.09-1.32,2.36-2.24,3.79-2.78.98-.39,2.48-.62,4.5-.67v3.62c-1.96.03-3.42.15-4.38.38-1.85.45-3.34,1.53-4.46,3.24-.31.45-.58.92-.8,1.41-.22.49-.34.83-.34,1.03v12.45h-4.04v-21.84h4.04v5.76Z"/>
    <path d="M418.62,142.29h4.04v15.44c.81-1.12,1.56-1.99,2.23-2.61,1.46-1.26,3.16-1.89,5.09-1.89,1.51,0,2.86.37,4.04,1.09.87.53,1.54,1.25,2.02,2.15.67,1.18,1.01,2.5,1.01,3.96v14.94h-4.04v-14.73c0-2.19-.48-3.7-1.43-4.54-.7-.59-1.53-.88-2.48-.88-1.46,0-2.78.67-3.96,2.02-1.66,1.91-2.48,3.18-2.48,3.83v14.31h-4.04v-33.07Z"/>
    <path d="M460.36,175.36h-3.87v-3.37c-1.04.95-1.98,1.68-2.82,2.19-1.66.98-3.41,1.47-5.26,1.47-2.22,0-3.89-.64-5.01-1.93-1.04-1.21-1.56-2.69-1.56-4.46,0-2.02.7-3.67,2.1-4.96.9-.81,2.03-1.4,3.41-1.77,1.26-.31,2.97-.51,5.13-.59,1.01-.03,2.34-.04,4-.04v-1.14c0-2.24-.53-3.8-1.6-4.67-.95-.76-2.16-1.14-3.62-1.14s-2.95.42-4.29,1.26c-.67.42-1.57,1.18-2.69,2.27l-1.18-2.99c1.29-.76,2.44-1.28,3.45-1.56,1.63-.48,3.37-.72,5.22-.72,2.58,0,4.59.55,6.02,1.64,1.71,1.32,2.57,3.28,2.57,5.89v14.6ZM456.49,163.66c-2.58.08-4.31.2-5.18.34-3.51.56-5.26,2.4-5.26,5.51,0,.95.21,1.82.63,2.61.28.5.66.88,1.14,1.14.48.28,1.01.42,1.6.42,1.63,0,3.35-.72,5.18-2.15.62-.48,1.25-1.08,1.89-1.81v-6.06Z"/>
    <path d="M466.46,153.52h4.04v4.21c.93-1.29,1.79-2.26,2.61-2.9,1.4-1.07,2.97-1.6,4.71-1.6,1.43,0,2.75.37,3.96,1.09.93.56,1.64,1.28,2.15,2.15.64,1.15.97,2.47.97,3.96v14.94h-4.04v-14.73c0-1.4-.25-2.61-.76-3.62-.28-.56-.72-1.01-1.3-1.35-.53-.31-1.15-.46-1.85-.46-1.63,0-3.06.81-4.29,2.44-1.43,1.88-2.15,3.02-2.15,3.41v14.31h-4.04v-21.84Z"/>
    <path d="M509.5,175.36h-4.04v-3.32c-.76,1.04-1.46,1.78-2.1,2.23-1.26.93-2.82,1.39-4.67,1.39-2.41,0-4.32-.69-5.72-2.06-1.18-1.15-2.05-2.64-2.61-4.46-.48-1.51-.72-3.17-.72-4.96,0-2.8.6-5.15,1.81-7.03,1.65-2.61,4.01-3.91,7.07-3.91,1.88,0,3.53.52,4.96,1.56.56.39,1.22,1.07,1.98,2.02v-14.52h4.04v33.07ZM505.46,168.84v-8.25c0-.48-.29-1.23-.88-2.27-.59-1.04-1.4-1.85-2.44-2.44-.93-.51-1.89-.76-2.9-.76-1.77,0-3.06.74-3.87,2.23-.93,1.74-1.39,4.1-1.39,7.07s.49,5.3,1.47,7.07c.87,1.54,2.17,2.31,3.91,2.31.98,0,1.91-.24,2.78-.71.81-.42,1.63-1.28,2.44-2.57.59-.87.88-1.43.88-1.68Z"/>
    <path d="M514.25,173.51l1.09-3.11c1.35,1.18,2.45,2.01,3.32,2.48,1.32.7,2.66,1.05,4.04,1.05,1.07,0,2.03-.24,2.9-.71,1.23-.64,1.85-1.72,1.85-3.24,0-.95-.27-1.68-.8-2.19-.42-.42-1.21-.81-2.36-1.18l-4.8-1.56c-1.74-.56-2.97-1.26-3.7-2.1-.76-.9-1.14-1.99-1.14-3.28,0-2.36,1.04-4.11,3.11-5.26,1.43-.78,3.18-1.18,5.26-1.18,2.78,0,5.47.69,8.08,2.06l-1.47,2.52c-.93-.76-1.72-1.32-2.4-1.68-1.37-.78-2.79-1.18-4.25-1.18s-2.65.42-3.41,1.26c-.62.7-.93,1.56-.93,2.57,0,.9.32,1.56.97,1.98.56.37,1.43.74,2.61,1.14l3.83,1.26c1.37.45,2.37.86,2.99,1.22,1.71,1.07,2.57,2.65,2.57,4.75,0,2.33-1,4.07-2.99,5.22-1.46.87-3.39,1.3-5.81,1.3-2.05,0-3.94-.28-5.68-.84-.76-.25-1.72-.69-2.9-1.3Z"/>
  </g>
</svg>