<?xml version="1.0" encoding="UTF-8"?>
<svg id="Capa_1" data-name="Capa 1" xmlns="http://www.w3.org/2000/svg" viewBox="0 0 582.63 197.12">
  <defs>
    <style>
      .cls-1 {
        stroke-width: 3.63px;
      }

      .cls-1, .cls-2 {
        fill: none;
        stroke: #fff;
        stroke-miterlimit: 10;
      }

      .cls-3 {
        fill: #fff;
      }

      .cls-2 {
        stroke-width: 9.08px;
      }
    </style>
  </defs>
  <g>
    <g>
      <path class="cls-3" d="M158.69,16.24h14.49v69.29c0,11.66,3.3,20.27,9.9,25.83,2.96,2.46,6.27,4.15,9.9,5.06,3.44.82,7.32,1.23,11.62,1.23,8.7,0,15.83-1.68,21.38-5.06,4.5-2.73,7.75-6.1,9.76-10.11,2.39-4.92,3.59-10.66,3.59-17.22V16.24h8.18v69.97c0,15.4-5.98,26.38-17.94,32.94-4.02,2.19-8.09,3.64-12.2,4.37-4.3.73-9.04,1.09-14.21,1.09-8.04,0-14.49-.82-19.37-2.46-7.75-2.55-13.78-6.65-18.08-12.3-4.69-6.19-7.03-14.08-7.03-23.64V16.24Z"/>
      <path class="cls-3" d="M312.52,25.53v99.08h-14.78V25.53h-39.32v-7.24h93.42v7.24h-39.32Z"/>
      <path class="cls-3" d="M410.03,86.31h-55.97c.32,8.02,1.91,14.7,4.78,20.04,4.36,8.12,11.27,12.18,20.73,12.18,6.59,0,12.7-2.08,18.34-6.24,1.91-1.49,4.41-3.81,7.5-6.98l4.31,10.1c-4.15,2.67-7.6,4.6-10.37,5.79-5.53,2.28-11.91,3.42-19.14,3.42-12.44,0-22.17-3.02-29.18-9.06-3.3-2.87-5.9-6.19-7.81-9.95-3.3-6.53-4.94-13.51-4.94-20.94,0-8.12,1.76-15.39,5.26-21.83,2.87-5.25,6.59-9.25,11.16-12.03,5.95-3.66,12.92-5.49,20.89-5.49,8.93,0,16.37,2.33,22.33,6.98,3.08,2.48,5.63,5.84,7.65,10.1,2.55,5.35,3.99,11.53,4.31,18.56.1,1.58.16,3.37.16,5.35ZM354.38,79.33h39.87c-.43-5.84-1.06-10.19-1.91-13.07-1.91-6.14-4.68-10.34-8.29-12.62-2.45-1.49-5.32-2.23-8.61-2.23-12.33,0-19.35,9.31-21.05,27.91Z"/>
      <path class="cls-3" d="M492.9,63.41l-10.19-.24c-1.9-4.15-4.47-7.81-6.64-9.01-4.22-2.39-5.4-2.9-10.28-2.9-8.55,0-14.83,3.28-18.84,9.84-3.9,6.16-5.85,14.11-5.85,23.85s1.84,17.34,5.52,23.4c1.84,3.08,4.38,5.52,7.63,7.31,3.57,1.89,7.74,2.83,12.51,2.83,6.06,0,11.64-1.74,16.73-5.22,1.84-1.29,4.28-3.33,7.31-6.11l2.92,11.78c-4.22,1.89-7.91,3.23-11.04,4.03-4.66,1.09-9.58,1.64-14.78,1.64-15.92,0-27.5-4.37-34.76-13.12-5.85-7.16-8.77-15.95-8.77-26.39,0-11.73,3.63-21.27,10.88-28.62,2.6-2.68,5.47-4.82,8.61-6.41,6.5-3.28,13.86-4.92,22.09-4.92,9.2,0,22.91,4.62,26.94,18.25Z"/>
      <path class="cls-3" d="M509.37,15.43h14v50.98c2.82-3.7,5.4-6.57,7.73-8.61,5.06-4.17,10.94-6.25,17.65-6.25,5.25,0,9.92,1.21,14,3.61,3.01,1.76,5.35,4.12,7,7.09,2.33,3.89,3.5,8.24,3.5,13.06v49.32h-14v-48.62c0-7.22-1.66-12.22-4.96-15-2.43-1.94-5.3-2.92-8.61-2.92-5.06,0-9.63,2.22-13.71,6.67-5.74,6.3-8.61,10.51-8.61,12.64v47.23h-14V15.43Z"/>
    </g>
    <line class="cls-1" x1="125.01" x2="125.01" y2="138.91"/>
    <g>
      <path class="cls-2" d="M66.22,82.42c-12.57,0-22.76-9.96-22.76-22.25s10.19-22.25,22.76-22.25,22.76,9.96,22.76,22.25"/>
      <path class="cls-2" d="M66.22,99.76c-21.86,0-39.59-17.72-39.59-39.59s17.72-39.59,39.59-39.59"/>
      <path class="cls-2" d="M65.04,118.01c-31.94,0-57.84-25.89-57.84-57.84"/>
    </g>
  </g>
  <g>
    <path class="cls-3" d="M17.38,158.75v33.43h-4.75v-33.43H0v-2.44h30.02v2.44h-12.63Z"/>
    <path class="cls-3" d="M34.49,155.94h4.43v16.92c.89-1.23,1.71-2.18,2.44-2.86,1.6-1.38,3.46-2.08,5.58-2.08,1.66,0,3.14.4,4.43,1.2.95.58,1.69,1.37,2.21,2.35.74,1.29,1.11,2.74,1.11,4.33v16.37h-4.43v-16.14c0-2.4-.52-4.06-1.57-4.98-.77-.65-1.68-.97-2.72-.97-1.6,0-3.04.74-4.33,2.21-1.81,2.09-2.72,3.49-2.72,4.2v15.68h-4.43v-36.24Z"/>
    <path class="cls-3" d="M80.69,180.61h-16.18c.09,2.49.55,4.56,1.38,6.22,1.26,2.52,3.26,3.78,5.99,3.78,1.91,0,3.67-.65,5.3-1.94.55-.46,1.28-1.18,2.17-2.17l1.25,3.14c-1.2.83-2.2,1.43-3,1.8-1.6.71-3.44,1.06-5.53,1.06-3.6,0-6.41-.94-8.44-2.81-.95-.89-1.71-1.92-2.26-3.09-.95-2.03-1.43-4.2-1.43-6.5,0-2.52.51-4.78,1.52-6.78.83-1.63,1.91-2.87,3.23-3.73,1.72-1.14,3.73-1.71,6.04-1.71,2.58,0,4.73.72,6.46,2.17.89.77,1.63,1.81,2.21,3.13.74,1.66,1.15,3.58,1.25,5.76.03.49.05,1.05.05,1.66ZM64.6,178.44h11.53c-.12-1.81-.31-3.17-.55-4.06-.55-1.91-1.35-3.21-2.4-3.92-.71-.46-1.54-.69-2.49-.69-3.57,0-5.59,2.89-6.09,8.67Z"/>
    <path class="cls-3" d="M102.78,168.57v-7.33c0-1.32.12-2.24.37-2.77.43-.89,1.12-1.51,2.08-1.84.65-.21,1.67-.32,3.09-.32h5.67v2.26h-4.1c-1.2,0-1.95.2-2.26.6-.28.4-.42,1.15-.42,2.26v7.15h6.78v2.26h-6.78v21.35h-4.43v-21.35h-5.86v-2.26h5.86Z"/>
    <path class="cls-3" d="M138.88,192.18h-4.43v-4.56c-.89,1.2-1.72,2.14-2.49,2.81-1.57,1.38-3.43,2.07-5.58,2.07-1.63,0-3.07-.37-4.33-1.11-.95-.58-1.71-1.38-2.26-2.4-.74-1.32-1.11-2.78-1.11-4.38v-16.37h4.43v16.14c0,2.46.54,4.15,1.61,5.07.74.68,1.63,1.01,2.67,1.01,1.66,0,3.15-.81,4.47-2.44.71-.86,1.38-1.8,2.03-2.81.37-.58.55-1.01.55-1.29v-15.68h4.43v23.93Z"/>
    <path class="cls-3" d="M153.49,168.57h6.73v2.26h-6.73v16.46c0,.86.17,1.45.51,1.75.4.34,1.01.51,1.84.51h4.38v2.26h-5.81c-1.51,0-2.6-.15-3.27-.46-1.38-.68-2.07-1.92-2.07-3.73v-16.78h-5.58v-2.26h5.58v-8.12h4.43v8.12Z"/>
    <path class="cls-3" d="M185.03,192.18h-4.43v-4.56c-.89,1.2-1.72,2.14-2.49,2.81-1.57,1.38-3.43,2.07-5.58,2.07-1.63,0-3.07-.37-4.33-1.11-.95-.58-1.71-1.38-2.26-2.4-.74-1.32-1.11-2.78-1.11-4.38v-16.37h4.43v16.14c0,2.46.54,4.15,1.61,5.07.74.68,1.63,1.01,2.67,1.01,1.66,0,3.15-.81,4.47-2.44.71-.86,1.38-1.8,2.03-2.81.37-.58.55-1.01.55-1.29v-15.68h4.43v23.93Z"/>
    <path class="cls-3" d="M196.24,174.57c.65-1.26,1.26-2.21,1.84-2.86,1.2-1.44,2.58-2.46,4.15-3.04,1.08-.43,2.72-.68,4.93-.74v3.97c-2.15.03-3.75.17-4.8.41-2.03.49-3.66,1.68-4.89,3.55-.34.49-.63,1.01-.88,1.54-.25.54-.37.92-.37,1.13v13.65h-4.43v-23.93h4.43v6.32Z"/>
    <path class="cls-3" d="M230.77,180.61h-16.18c.09,2.49.55,4.56,1.38,6.22,1.26,2.52,3.26,3.78,5.99,3.78,1.91,0,3.67-.65,5.3-1.94.55-.46,1.28-1.18,2.17-2.17l1.25,3.14c-1.2.83-2.2,1.43-3,1.8-1.6.71-3.44,1.06-5.53,1.06-3.6,0-6.41-.94-8.44-2.81-.95-.89-1.71-1.92-2.26-3.09-.95-2.03-1.43-4.2-1.43-6.5,0-2.52.51-4.78,1.52-6.78.83-1.63,1.91-2.87,3.23-3.73,1.72-1.14,3.73-1.71,6.04-1.71,2.58,0,4.73.72,6.46,2.17.89.77,1.63,1.81,2.21,3.13.74,1.66,1.15,3.58,1.25,5.76.03.49.05,1.05.05,1.66ZM214.68,178.44h11.53c-.12-1.81-.31-3.17-.55-4.06-.55-1.91-1.35-3.21-2.4-3.92-.71-.46-1.54-.69-2.49-.69-3.57,0-5.59,2.89-6.09,8.67Z"/>
    <path class="cls-3" d="M251.47,155.62c.89,0,1.64.35,2.26,1.06.55.58.83,1.28.83,2.07,0,.95-.35,1.74-1.06,2.35-.58.55-1.28.83-2.07.83-.95,0-1.74-.35-2.35-1.06-.55-.58-.83-1.29-.83-2.12,0-.92.35-1.69,1.06-2.3.58-.55,1.31-.83,2.17-.83ZM249.22,192.18v-23.93h4.47v23.93h-4.47Z"/>
    <path class="cls-3" d="M259.08,190.15l1.2-3.41c1.48,1.29,2.69,2.2,3.64,2.72,1.44.77,2.92,1.15,4.43,1.15,1.17,0,2.23-.26,3.18-.78,1.35-.71,2.03-1.89,2.03-3.55,0-1.04-.29-1.84-.88-2.4-.46-.46-1.32-.89-2.58-1.29l-5.26-1.71c-1.91-.61-3.26-1.38-4.06-2.31-.83-.98-1.24-2.18-1.24-3.6,0-2.58,1.14-4.5,3.41-5.76,1.57-.86,3.49-1.29,5.76-1.29,3.04,0,5.99.75,8.85,2.26l-1.61,2.77c-1.01-.83-1.89-1.44-2.63-1.84-1.51-.86-3.06-1.29-4.66-1.29s-2.9.46-3.73,1.38c-.68.77-1.01,1.71-1.01,2.81,0,.98.35,1.71,1.06,2.17.61.4,1.57.81,2.86,1.24l4.2,1.38c1.51.49,2.6.94,3.27,1.34,1.87,1.17,2.81,2.9,2.81,5.21,0,2.55-1.09,4.46-3.27,5.72-1.6.95-3.72,1.43-6.36,1.43-2.24,0-4.32-.31-6.22-.92-.83-.28-1.89-.75-3.18-1.43Z"/>
    <path class="cls-3" d="M298.6,155.62c.89,0,1.64.35,2.26,1.06.55.58.83,1.28.83,2.07,0,.95-.35,1.74-1.06,2.35-.58.55-1.28.83-2.07.83-.95,0-1.74-.35-2.35-1.06-.55-.58-.83-1.29-.83-2.12,0-.92.35-1.69,1.06-2.3.58-.55,1.31-.83,2.17-.83ZM296.34,192.18v-23.93h4.47v23.93h-4.47Z"/>
    <path class="cls-3" d="M307.68,168.25h4.43v4.61c1.01-1.41,1.97-2.47,2.86-3.18,1.54-1.17,3.26-1.75,5.16-1.75,1.57,0,3.01.4,4.33,1.2,1.01.62,1.8,1.4,2.35,2.35.71,1.26,1.06,2.71,1.06,4.33v16.37h-4.43v-16.14c0-1.54-.28-2.86-.83-3.97-.31-.61-.78-1.11-1.43-1.48-.58-.34-1.26-.51-2.03-.51-1.78,0-3.35.89-4.7,2.67-1.57,2.06-2.35,3.3-2.35,3.73v15.68h-4.43v-23.93Z"/>
    <path class="cls-3" d="M358.08,183.47l7.65-15.22h2.67l-14.52,28.86h-2.67l4.47-8.85-10.56-20.01h4.93l8.02,15.22Z"/>
    <path class="cls-3" d="M382.65,167.93c2.09,0,4,.51,5.72,1.52,1.72,1.01,3.04,2.34,3.97,3.97,1.14,2.03,1.71,4.29,1.71,6.78s-.57,4.8-1.71,6.82c-.92,1.66-2.24,2.98-3.97,3.97-1.75,1.01-3.71,1.52-5.86,1.52s-4.07-.51-5.86-1.52c-1.69-.98-3.01-2.29-3.97-3.92-1.14-2.06-1.71-4.33-1.71-6.82,0-2.7.61-5.07,1.84-7.1,1.04-1.69,2.49-3.01,4.33-3.97,1.6-.83,3.43-1.25,5.49-1.25ZM382.42,169.82c-1.45,0-2.75.55-3.92,1.66-1.84,1.75-2.77,4.63-2.77,8.62,0,2.95.52,5.38,1.57,7.29.52,1.01,1.28,1.81,2.26,2.4.92.55,1.91.83,2.95.83,1.54,0,2.87-.55,4.01-1.66.92-.86,1.63-2.07,2.12-3.64.43-1.48.65-3.12.65-4.93,0-3.32-.62-5.93-1.84-7.84-.55-.89-1.32-1.58-2.3-2.08-.83-.43-1.74-.64-2.72-.64Z"/>
    <path class="cls-3" d="M419.31,192.18h-4.43v-4.56c-.89,1.2-1.72,2.14-2.49,2.81-1.57,1.38-3.43,2.07-5.58,2.07-1.63,0-3.07-.37-4.33-1.11-.95-.58-1.71-1.38-2.26-2.4-.74-1.32-1.11-2.78-1.11-4.38v-16.37h4.43v16.14c0,2.46.54,4.15,1.61,5.07.74.68,1.63,1.01,2.67,1.01,1.66,0,3.15-.81,4.47-2.44.71-.86,1.38-1.8,2.03-2.81.37-.58.55-1.01.55-1.29v-15.68h4.43v23.93Z"/>
    <path class="cls-3" d="M430.51,174.57c.65-1.26,1.26-2.21,1.84-2.86,1.2-1.44,2.58-2.46,4.15-3.04,1.08-.43,2.72-.68,4.93-.74v3.97c-2.15.03-3.75.17-4.8.41-2.03.49-3.66,1.68-4.89,3.55-.34.49-.63,1.01-.88,1.54-.25.54-.37.92-.37,1.13v13.65h-4.43v-23.93h4.43v6.32Z"/>
    <path class="cls-3" d="M458.78,155.94h4.43v16.92c.89-1.23,1.71-2.18,2.44-2.86,1.6-1.38,3.46-2.08,5.58-2.08,1.66,0,3.14.4,4.43,1.2.95.58,1.69,1.37,2.21,2.35.74,1.29,1.11,2.74,1.11,4.33v16.37h-4.43v-16.14c0-2.4-.52-4.06-1.57-4.98-.77-.65-1.68-.97-2.72-.97-1.6,0-3.04.74-4.33,2.21-1.81,2.09-2.72,3.49-2.72,4.2v15.68h-4.43v-36.24Z"/>
    <path class="cls-3" d="M504.52,192.18h-4.24v-3.69c-1.14,1.04-2.17,1.84-3.09,2.4-1.81,1.08-3.73,1.61-5.76,1.61-2.43,0-4.26-.71-5.49-2.12-1.14-1.32-1.71-2.95-1.71-4.89,0-2.21.77-4.03,2.31-5.44.98-.89,2.23-1.54,3.73-1.94,1.38-.34,3.26-.55,5.63-.65,1.11-.03,2.57-.05,4.38-.05v-1.24c0-2.46-.58-4.16-1.75-5.12-1.04-.83-2.37-1.24-3.97-1.24s-3.23.46-4.7,1.38c-.74.46-1.72,1.29-2.95,2.49l-1.29-3.27c1.41-.83,2.67-1.4,3.78-1.71,1.78-.52,3.69-.78,5.72-.78,2.83,0,5.03.6,6.59,1.8,1.88,1.45,2.81,3.6,2.81,6.46v16ZM500.28,179.36c-2.83.09-4.72.21-5.67.37-3.84.62-5.76,2.63-5.76,6.04,0,1.04.23,2,.69,2.86.31.55.72.97,1.25,1.24.52.31,1.11.46,1.75.46,1.78,0,3.67-.78,5.67-2.35.68-.52,1.37-1.18,2.07-1.98v-6.64Z"/>
    <path class="cls-3" d="M511.2,168.25h4.43v4.61c1.01-1.41,1.97-2.47,2.86-3.18,1.54-1.17,3.26-1.75,5.16-1.75,1.57,0,3.01.4,4.33,1.2,1.01.62,1.8,1.4,2.35,2.35.71,1.26,1.06,2.71,1.06,4.33v16.37h-4.43v-16.14c0-1.54-.28-2.86-.83-3.97-.31-.61-.78-1.11-1.43-1.48-.58-.34-1.26-.51-2.03-.51-1.78,0-3.35.89-4.7,2.67-1.57,2.06-2.35,3.3-2.35,3.73v15.68h-4.43v-23.93Z"/>
    <path class="cls-3" d="M558.37,192.18h-4.43v-3.64c-.83,1.14-1.6,1.95-2.3,2.44-1.38,1.01-3.09,1.52-5.12,1.52-2.64,0-4.73-.75-6.27-2.26-1.29-1.26-2.24-2.89-2.86-4.89-.52-1.66-.78-3.47-.78-5.44,0-3.07.66-5.64,1.98-7.7,1.81-2.86,4.39-4.29,7.75-4.29,2.06,0,3.87.57,5.44,1.71.62.43,1.34,1.17,2.17,2.21v-15.91h4.43v36.24ZM553.95,185.04v-9.04c0-.52-.32-1.35-.97-2.49-.64-1.14-1.54-2.03-2.67-2.67-1.01-.55-2.08-.83-3.18-.83-1.94,0-3.35.81-4.24,2.44-1.01,1.91-1.52,4.49-1.52,7.75s.54,5.81,1.61,7.75c.95,1.69,2.38,2.54,4.29,2.54,1.08,0,2.09-.26,3.04-.78.89-.46,1.78-1.4,2.67-2.81.65-.95.97-1.57.97-1.84Z"/>
    <path class="cls-3" d="M563.58,190.15l1.2-3.41c1.48,1.29,2.69,2.2,3.64,2.72,1.44.77,2.92,1.15,4.43,1.15,1.17,0,2.23-.26,3.18-.78,1.35-.71,2.03-1.89,2.03-3.55,0-1.04-.29-1.84-.88-2.4-.46-.46-1.32-.89-2.58-1.29l-5.26-1.71c-1.91-.61-3.26-1.38-4.06-2.31-.83-.98-1.24-2.18-1.24-3.6,0-2.58,1.14-4.5,3.41-5.76,1.57-.86,3.49-1.29,5.76-1.29,3.04,0,5.99.75,8.85,2.26l-1.61,2.77c-1.01-.83-1.89-1.44-2.63-1.84-1.51-.86-3.06-1.29-4.66-1.29s-2.9.46-3.73,1.38c-.68.77-1.01,1.71-1.01,2.81,0,.98.35,1.71,1.06,2.17.61.4,1.57.81,2.86,1.24l4.2,1.38c1.51.49,2.6.94,3.27,1.34,1.87,1.17,2.81,2.9,2.81,5.21,0,2.55-1.09,4.46-3.27,5.72-1.6.95-3.72,1.43-6.36,1.43-2.24,0-4.32-.31-6.22-.92-.83-.28-1.89-.75-3.18-1.43Z"/>
  </g>
</svg>